<?xml version="1.0" encoding="utf-8"?>
<!DOCTYPE svg
  PUBLIC '-//W3C//DTD SVG 1.0//EN'
  'http://www.w3.org/TR/2001/REC-SVG-20010904/DTD/svg10.dtd'>
<svg width="504" height="130" preserveAspectRatio="xMinYMin meet" viewBox="0 0 504 130" xmlns="http://www.w3.org/2000/svg" version="1.0" fill-rule="evenodd" xmlns:xlink="http://www.w3.org/1999/xlink">
	<title>...</title>
	<desc>...</desc>
	<clipPath id="clip">
		<rect x="0" y="0" width="504" height="130"/>
	</clipPath>
	<g id="group" transform="scale(1,-1) translate(0,-130)" style="clip-path: url(#clip)">
		<g transform="">
			<rect x="0" y="42" width="110" height="65" rx="5" ry="5" style="stroke: rgb(9%,23%,28%); stroke-linecap: butt; stroke-width: 1; fill: rgb(92%,95%,96%); fill-rule: evenodd;"/>
			<text x="9" y="89" style="font-family: Helvetica-Bold; font-size: 10px;fill: rgb(9%,23%,28%); stroke:none;" transform="translate(0,178) scale(1,-1)">Browser</text>
			<text x="9" y="72" style="font-family: Helvetica; font-size: 8.5px;fill: rgb(0%,0%,0%); stroke:none;" transform="translate(0,144) scale(1,-1)">Login and room list</text>
			<text x="9" y="59" style="font-family: Helvetica; font-size: 8.5px;fill: rgb(0%,0%,0%); stroke:none;" transform="translate(0,118) scale(1,-1)">HTML / CSS</text>
			<rect x="177" y="28" width="150" height="92" rx="5" ry="5" style="stroke: rgb(9%,23%,28%); stroke-linecap: butt; stroke-width: 1; fill: rgb(92%,95%,96%); fill-rule: evenodd;"/>
			<text x="186" y="102" style="font-family: Helvetica-Bold; font-size: 10px;fill: rgb(9%,23%,28%); stroke:none;" transform="translate(0,204) scale(1,-1)">Flask backend</text>
			<text x="186" y="85" style="font-family: Helvetica; font-size: 8.5px;fill: rgb(0%,0%,0%); stroke:none;" transform="translate(0,170) scale(1,-1)">Routes / Flask-Login</text>
			<text x="186" y="72" style="font-family: Helvetica; font-size: 8.5px;fill: rgb(0%,0%,0%); stroke:none;" transform="translate(0,144) scale(1,-1)">Password and role checks</text>
			<text x="186" y="59" style="font-family: Helvetica; font-size: 8.5px;fill: rgb(0%,0%,0%); stroke:none;" transform="translate(0,118) scale(1,-1)">Python sqlite3</text>
			<rect x="394" y="42" width="110" height="65" rx="5" ry="5" style="stroke: rgb(9%,23%,28%); stroke-linecap: butt; stroke-width: 1; fill: rgb(92%,95%,96%); fill-rule: evenodd;"/>
			<text x="403" y="89" style="font-family: Helvetica-Bold; font-size: 10px;fill: rgb(9%,23%,28%); stroke:none;" transform="translate(0,178) scale(1,-1)">SQLite</text>
			<text x="403" y="72" style="font-family: Helvetica; font-size: 8.5px;fill: rgb(0%,0%,0%); stroke:none;" transform="translate(0,144) scale(1,-1)">week6.db</text>
			<text x="403" y="59" style="font-family: Helvetica; font-size: 8.5px;fill: rgb(0%,0%,0%); stroke:none;" transform="translate(0,118) scale(1,-1)">Four tables</text>
			<path d="M 110,74 L 177,74 Z" style="stroke: rgb(9%,23%,28%); stroke-linecap: butt; stroke-width: 1.1;"/>
			<polygon points="177 74, 171.4736 76.33651, 171.4736 71.66349" style="stroke: rgb(9%,23%,28%); stroke-linecap: butt; stroke-width: 1; fill: rgb(9%,23%,28%); fill-rule: evenodd;"/>
			<text x="126" y="82" style="font-family: Helvetica; font-size: 8px;fill: rgb(9%,23%,28%); stroke:none;" transform="translate(0,164) scale(1,-1)">HTTP</text>
			<path d="M 327,74 L 394,74 Z" style="stroke: rgb(9%,23%,28%); stroke-linecap: butt; stroke-width: 1.1;"/>
			<polygon points="394 74, 388.4736 76.33651, 388.4736 71.66349" style="stroke: rgb(9%,23%,28%); stroke-linecap: butt; stroke-width: 1; fill: rgb(9%,23%,28%); fill-rule: evenodd;"/>
			<text x="339" y="82" style="font-family: Helvetica; font-size: 8px;fill: rgb(9%,23%,28%); stroke:none;" transform="translate(0,164) scale(1,-1)">Queries</text>
			<text x="0" y="7" style="font-family: Times-Roman; font-size: 9px;fill: rgb(0%,0%,0%); stroke:none;" transform="translate(0,14) scale(1,-1)">Browser requests return server-rendered HTML. Local demonstration: 127.0.0.1.</text>
		</g>
	</g>
</svg>
