<?xml version="1.0" encoding="utf-8"?>
<!DOCTYPE svg
  PUBLIC '-//W3C//DTD SVG 1.0//EN'
  'http://www.w3.org/TR/2001/REC-SVG-20010904/DTD/svg10.dtd'>
<svg width="504" height="245" preserveAspectRatio="xMinYMin meet" viewBox="0 0 504 245" xmlns="http://www.w3.org/2000/svg" version="1.0" fill-rule="evenodd" xmlns:xlink="http://www.w3.org/1999/xlink">
	<title>...</title>
	<desc>...</desc>
	<clipPath id="clip">
		<rect x="0" y="0" width="504" height="245"/>
	</clipPath>
	<g id="group" transform="scale(1,-1) translate(0,-245)" style="clip-path: url(#clip)">
		<g transform="">
			<rect x="0" y="130" width="208" height="110" rx="5" ry="5" style="stroke: rgb(9%,23%,28%); stroke-linecap: butt; stroke-width: 1; fill: rgb(92%,95%,96%); fill-rule: evenodd;"/>
			<text x="9" y="222" style="font-family: Helvetica-Bold; font-size: 10px;fill: rgb(9%,23%,28%); stroke:none;" transform="translate(0,444) scale(1,-1)">Users</text>
			<text x="9" y="205" style="font-family: Helvetica; font-size: 8.5px;fill: rgb(0%,0%,0%); stroke:none;" transform="translate(0,410) scale(1,-1)">PK id</text>
			<text x="9" y="192" style="font-family: Helvetica; font-size: 8.5px;fill: rgb(0%,0%,0%); stroke:none;" transform="translate(0,384) scale(1,-1)">username (unique)</text>
			<text x="9" y="179" style="font-family: Helvetica; font-size: 8.5px;fill: rgb(0%,0%,0%); stroke:none;" transform="translate(0,358) scale(1,-1)">password_hash</text>
			<text x="9" y="166" style="font-family: Helvetica; font-size: 8.5px;fill: rgb(0%,0%,0%); stroke:none;" transform="translate(0,332) scale(1,-1)">role: guest / employee / admin</text>
			<rect x="296" y="130" width="208" height="110" rx="5" ry="5" style="stroke: rgb(9%,23%,28%); stroke-linecap: butt; stroke-width: 1; fill: rgb(92%,95%,96%); fill-rule: evenodd;"/>
			<text x="305" y="222" style="font-family: Helvetica-Bold; font-size: 10px;fill: rgb(9%,23%,28%); stroke:none;" transform="translate(0,444) scale(1,-1)">AuditLogs</text>
			<text x="305" y="205" style="font-family: Helvetica; font-size: 8.5px;fill: rgb(0%,0%,0%); stroke:none;" transform="translate(0,410) scale(1,-1)">PK id</text>
			<text x="305" y="192" style="font-family: Helvetica; font-size: 8.5px;fill: rgb(0%,0%,0%); stroke:none;" transform="translate(0,384) scale(1,-1)">FK user_id -&gt; Users.id (optional)</text>
			<text x="305" y="179" style="font-family: Helvetica; font-size: 8.5px;fill: rgb(0%,0%,0%); stroke:none;" transform="translate(0,358) scale(1,-1)">action</text>
			<text x="305" y="166" style="font-family: Helvetica; font-size: 8.5px;fill: rgb(0%,0%,0%); stroke:none;" transform="translate(0,332) scale(1,-1)">timestamp (UTC)</text>
			<path d="M 208,177 L 296,177 Z" style="stroke: rgb(9%,23%,28%); stroke-linecap: butt; stroke-width: 1.1;"/>
			<polygon points="296 177, 290.4736 179.3365, 290.4736 174.6635" style="stroke: rgb(9%,23%,28%); stroke-linecap: butt; stroke-width: 1; fill: rgb(9%,23%,28%); fill-rule: evenodd;"/>
			<text x="228" y="185" style="font-family: Helvetica; font-size: 8px;fill: rgb(9%,23%,28%); stroke:none;" transform="translate(0,370) scale(1,-1)">1 : 0..N</text>
			<rect x="0" y="6" width="208" height="95" rx="5" ry="5" style="stroke: rgb(9%,23%,28%); stroke-linecap: butt; stroke-width: 1; fill: rgb(92%,95%,96%); fill-rule: evenodd;"/>
			<text x="9" y="83" style="font-family: Helvetica-Bold; font-size: 10px;fill: rgb(9%,23%,28%); stroke:none;" transform="translate(0,166) scale(1,-1)">Persons</text>
			<text x="9" y="66" style="font-family: Helvetica; font-size: 8.5px;fill: rgb(0%,0%,0%); stroke:none;" transform="translate(0,132) scale(1,-1)">PK id</text>
			<text x="9" y="53" style="font-family: Helvetica; font-size: 8.5px;fill: rgb(0%,0%,0%); stroke:none;" transform="translate(0,106) scale(1,-1)">name</text>
			<text x="9" y="40" style="font-family: Helvetica; font-size: 8.5px;fill: rgb(0%,0%,0%); stroke:none;" transform="translate(0,80) scale(1,-1)">kind: guest / employee</text>
			<rect x="296" y="6" width="208" height="95" rx="5" ry="5" style="stroke: rgb(9%,23%,28%); stroke-linecap: butt; stroke-width: 1; fill: rgb(92%,95%,96%); fill-rule: evenodd;"/>
			<text x="305" y="83" style="font-family: Helvetica-Bold; font-size: 10px;fill: rgb(9%,23%,28%); stroke:none;" transform="translate(0,166) scale(1,-1)">Rooms</text>
			<text x="305" y="66" style="font-family: Helvetica; font-size: 8.5px;fill: rgb(0%,0%,0%); stroke:none;" transform="translate(0,132) scale(1,-1)">PK id</text>
			<text x="305" y="53" style="font-family: Helvetica; font-size: 8.5px;fill: rgb(0%,0%,0%); stroke:none;" transform="translate(0,106) scale(1,-1)">name (unique)</text>
			<text x="305" y="40" style="font-family: Helvetica; font-size: 8.5px;fill: rgb(0%,0%,0%); stroke:none;" transform="translate(0,80) scale(1,-1)">capacity (positive integer)</text>
		</g>
	</g>
</svg>
